<svg height="15" viewBox="0 0 15 15" width="15" xmlns="http://www.w3.org/2000/svg"><g fill="none" fill-rule="evenodd"><path d="m0 0h15v15h-15z" opacity=".2"/><path d="m8.20290958.14784588.1221738.05995251.12789555.07659638c.20648346.13642471.37869072.31581388.50316221.5253293l5.82600346 9.80656323c.4557616.7671562.1732274 1.741471-.6310578 2.1761928-.2516575.1360227-.5359752.2075199-.8252294.2075199h-11.65200683c-.92444214 0-1.67385057-.7148128-1.67385057-1.5965791 0-.2759011.07495751-.5470936.21756344-.7871336l5.82600342-9.80656323c.43297352-.72879844 1.37649864-1.00845427 2.15934272-.66187819zm-.70290958 8.85215412c-.55228475 0-1 .44771525-1 1 0 .5522847.44771525 1 1 1s1-.4477153 1-1c0-.55228475-.44771525-1-1-1zm0-6c-.55228475 0-1 .44771525-1 1v3c0 .55228475.44771525 1 1 1s1-.44771525 1-1v-3c0-.55228475-.44771525-1-1-1z" fill="#f74638" fill-rule="nonzero" transform="translate(0 1)"/></g></svg>